# xmcd
#
# Track frame offsets:
#	150
#	13475
#	24055
#	39207
#	51577
#	66205
#	82310
#	95547
#	110542
#	123837
#	137792
#	151095
#	165565
#	175850
#
# Disc length: 2543
#
# Revision: 1
# Processed by: cddbd v1.5.1PL0 Copyright (c) Steve Scherf et al.
# Submitted via: VisiTrax 2.9.5.180 - For more info visit www.synapsa.com
# Normalized: r0:DSETVAR1
#
DISCID=b409ed0e
DTITLE=Various Artist - Mr. Music Country 4-94
DYEAR=1994
DGENRE=
TTITLE0=Marty Stuart - Let there be country
TTITLE1=Joy Whithe - Little tears
TTITLE2=Cody Austin - The coldest night since 1951
TTITLE3=Doug Stone - The workin' end of a hoe
TTITLE4=Sweethearts of the Rodeo - Hard headed woman
TTITLE5=Ricky Van Shelton - Sometimes I cry in my sleep
TTITLE6=Vern Gosdin - I knew my day would come
TTITLE7=Stacy Dean Campbell - Lonesome wins again
TTITLE8=Matthews Wright and King - House huntin'
TTITLE9=Katy and Hugh Moffatt - Dance me outside
TTITLE10=Andee Ivey - Don't leave me here to fight the fire alone
TTITLE11=Collin Raye - Big river
TTITLE12=Ray Camp/ Chris O'Connell - Austin waltz
TTITLE13=Waylon Jennings - Heartaches older than you
EXTD=
EXTT0=
EXTT1=
EXTT2=
EXTT3=
EXTT4=
EXTT5=
EXTT6=
EXTT7=
EXTT8=
EXTT9=
EXTT10=
EXTT11=
EXTT12=
EXTT13=
PLAYORDER=
